<svg width="46" height="46" viewBox="0 0 46 46" fill="none" xmlns="http://www.w3.org/2000/svg">
<path d="M23 0C10.3095 0 0 10.3095 0 23C0 35.6905 10.3095 46 23 46C35.6905 46 46 35.6905 46 23C46 10.3095 35.6905 0 23 0ZM23 2C34.6095 2 44 11.3905 44 23C44 34.6095 34.6095 44 23 44C11.3905 44 2 34.6095 2 23C2 11.3905 11.3905 2 23 2ZM30.9902 13.9863C30.7265 13.9926 30.4758 14.1028 30.293 14.293L23 21.5859L15.707 14.293C15.6138 14.1972 15.5024 14.121 15.3793 14.069C15.2562 14.017 15.1239 13.9902 14.9902 13.9902C14.7913 13.9903 14.5969 14.0497 14.4319 14.1608C14.2669 14.2719 14.1388 14.4297 14.0639 14.614C13.989 14.7983 13.9709 15.0008 14.0117 15.1955C14.0525 15.3902 14.1504 15.5683 14.293 15.707L21.5859 23L14.293 30.293C14.197 30.3851 14.1204 30.4955 14.0676 30.6176C14.0148 30.7397 13.9869 30.8712 13.9856 31.0042C13.9842 31.1373 14.0094 31.2692 14.0597 31.3924C14.11 31.5156 14.1843 31.6275 14.2784 31.7216C14.3725 31.8156 14.4844 31.89 14.6076 31.9403C14.7308 31.9906 14.8627 32.0158 14.9958 32.0144C15.1288 32.0131 15.2603 31.9852 15.3824 31.9324C15.5045 31.8796 15.6149 31.803 15.707 31.707L23 24.4141L30.293 31.707C30.3851 31.803 30.4955 31.8796 30.6176 31.9324C30.7397 31.9852 30.8712 32.0131 31.0042 32.0144C31.1373 32.0158 31.2692 31.9906 31.3924 31.9403C31.5156 31.89 31.6275 31.8156 31.7216 31.7216C31.8156 31.6275 31.89 31.5156 31.9403 31.3924C31.9906 31.2692 32.0158 31.1373 32.0144 31.0042C32.0131 30.8712 31.9852 30.7397 31.9324 30.6176C31.8796 30.4955 31.803 30.3851 31.707 30.293L24.4141 23L31.707 15.707C31.8523 15.5674 31.9519 15.3871 31.993 15.1899C32.034 14.9926 32.0145 14.7876 31.937 14.6016C31.8595 14.4156 31.7277 14.2573 31.5588 14.1476C31.3898 14.0378 31.1917 13.9816 30.9902 13.9863Z" fill="#696969" fill-opacity="0.9"/>
</svg>
